HIERARCHY
ROOT Hips
{
	OFFSET 0.000000 0.000000 0.000000 
	CHANNELS 6 Xposition Yposition Zposition Zrotation Yrotation Xrotation
	JOINT LeftUpLeg
	{
		OFFSET 1.363060 -1.794630 0.839290 
		CHANNELS 3 Zrotation Yrotation Xrotation
		JOINT LeftLeg
		{
			OFFSET 2.448110 -6.726130 0.000000 
			CHANNELS 3 Zrotation Yrotation Xrotation
			JOINT LeftFoot
			{
				OFFSET 2.562200 -7.039590 0.000000 
				CHANNELS 3 Zrotation Yrotation Xrotation
				JOINT LeftToeBase
				{
					OFFSET 0.157640 -0.433110 2.322550 
					CHANNELS 3 Zrotation Yrotation Xrotation
					End Site
					{
						OFFSET 0.000000 0.000000 0.000000 
					}
				}
			}
		}
	}
	JOINT RightUpLeg
	{
		OFFSET -1.305520 -1.794630 0.839290 
		CHANNELS 3 Zrotation Yrotation Xrotation
		JOINT RightLeg
		{
			OFFSET -2.542530 -6.985550 0.000000 
			CHANNELS 3 Zrotation Yrotation Xrotation
			JOINT RightFoot
			{
				OFFSET -2.568260 -7.056230 0.000000 
				CHANNELS 3 Zrotation Yrotation Xrotation
				JOINT RightToeBase
				{
					OFFSET -0.164730 -0.452590 2.363150 
					CHANNELS 3 Zrotation Yrotation Xrotation
					End Site
					{
						OFFSET 0.000000 0.000000 0.000000 
					}
				}
			}
		}
	}
	JOINT Spine
	{
		OFFSET 0.028270 2.035590 -0.193380 
		CHANNELS 3 Zrotation Yrotation Xrotation
		JOINT Spine1
		{
			OFFSET 0.056720 2.048850 -0.042750 
			CHANNELS 3 Zrotation Yrotation Xrotation
			JOINT Neck1
			{
				OFFSET -0.054170 1.746240 0.172020 
				CHANNELS 3 Zrotation Yrotation Xrotation
				JOINT Head
				{
					OFFSET 0.104070 1.761360 -0.123970 
					CHANNELS 3 Zrotation Yrotation Xrotation
					End Site
					{
						OFFSET 0.000000 0.000000 0.000000 
					}
				}
			}
			JOINT LeftArm
			{
				OFFSET 3.362410 1.200890 -0.311210 
				CHANNELS 3 Zrotation Yrotation Xrotation
				JOINT LeftForeArm
				{
					OFFSET 4.983000 -0.000000 -0.000000 
					CHANNELS 3 Zrotation Yrotation Xrotation
					JOINT LeftHand
					{
						OFFSET 3.483560 -0.000000 -0.000000 
						CHANNELS 3 Zrotation Yrotation Xrotation
						JOINT LeftHandIndex1
						{
							OFFSET 0.715260 -0.000000 -0.000000 
							CHANNELS 3 Zrotation Yrotation Xrotation
							End Site
							{
								OFFSET 0.000000 0.000000 0.000000 
							}
						}
					}
				}
			}
			JOINT RightArm
			{
				OFFSET -3.136600 1.374050 -0.404650 
				CHANNELS 3 Zrotation Yrotation Xrotation
				JOINT RightForeArm
				{
					OFFSET -5.241900 -0.000000 -0.000000 
					CHANNELS 3 Zrotation Yrotation Xrotation
					JOINT RightHand
					{
						OFFSET -3.444170 -0.000000 -0.000000 
						CHANNELS 3 Zrotation Yrotation Xrotation
						JOINT RightHandIndex1
						{
							OFFSET -0.622530 -0.000000 -0.000000 
							CHANNELS 3 Zrotation Yrotation Xrotation
							End Site
							{
								OFFSET 0.000000 0.000000 0.000000 
							}
						}
					}
				}
			}
		}
	}
}
MOTION
Frames: 9
Frame Time: 0.041667
10.955552 17.961958 24.333943 -176.798790 16.322368 -176.504598 -16.725529 -8.497285 -7.280512 -2.233554 8.082347 23.688353 -5.350511 17.813551 -11.108262 4.169800 -12.383100 -37.100900 27.331468 19.537759 -1.604054 2.276441 -6.711436 21.216874 2.738448 -12.305397 -7.357133 -0.311500 3.587800 -9.919800 5.379335 0.942402 3.177971 -5.046520 0.105499 -13.359185 13.730496 -1.182465 17.251823 2.370300 0.596600 5.563800 -91.516804 5.112979 24.453286 27.480851 -27.683856 -7.846268 1.335628 0.755569 6.923708 -7.125000 0.000000 0.000000 88.668681 -7.341700 26.882312 -27.027865 30.451383 -8.175688 0.801747 -0.246446 16.506613 7.125000 0.000000 0.000000 
10.957528 17.959982 24.338709 -176.726858 16.217299 -176.552134 -16.618402 -8.562432 -7.268777 -2.224293 8.090023 23.709574 -5.376108 17.858997 -11.032345 4.225100 -12.454100 -37.358000 27.465771 19.530197 -1.514214 2.286387 -6.690928 21.176337 2.759584 -12.397434 -7.442356 -0.292800 3.479400 -9.616600 5.314078 0.869641 3.362264 -5.089547 0.066124 -13.388448 13.660418 -1.142679 16.940656 2.321400 0.586900 5.467100 -91.365128 4.961929 23.966203 27.514075 -27.746064 -7.859599 1.347344 0.748589 7.026446 -7.125000 0.000000 0.000000 88.625796 -7.318486 26.782953 -27.755700 31.278041 -8.656478 0.766644 -0.226114 15.435545 7.125000 0.000000 0.000000 
10.959736 17.961144 24.339290 -176.776111 16.200290 -176.590461 -16.634570 -8.605663 -7.245101 -2.226917 8.086500 23.694966 -5.399056 17.917627 -11.001209 4.260900 -12.499800 -37.523700 27.454095 19.484990 -1.537135 2.274197 -6.710106 21.240860 2.752458 -12.372286 -7.466986 -0.300900 3.527200 -9.750200 5.036534 0.842920 3.585160 -5.090500 0.059331 -13.365627 13.602393 -1.136920 16.659871 2.268100 0.566900 5.394100 -91.110718 4.840525 23.578228 27.619823 -27.875172 -7.904983 1.356222 0.738181 6.943263 -7.125000 0.000000 0.000000 88.520659 -7.195326 26.227380 -27.667047 31.156471 -8.550478 0.778317 -0.238528 16.176911 7.125000 0.000000 0.000000 
10.960782 17.963469 24.344172 -176.879604 16.343868 -176.549433 -16.710760 -8.567100 -7.320576 -2.233635 8.086664 23.674927 -5.419582 17.978481 -10.996941 4.232700 -12.463800 -37.393000 27.319152 19.521829 -1.673290 2.264637 -6.727251 21.272222 2.716788 -12.221371 -7.339771 -0.315600 3.611200 -9.985200 4.785814 0.859731 3.739266 -5.053122 0.077823 -13.316817 13.508656 -1.126693 16.548889 2.216900 0.560800 5.379800 -90.879117 4.668264 23.227249 27.664027 -27.921317 -7.907882 1.339435 0.747637 6.874671 -7.125000 0.000000 0.000000 88.382651 -7.012362 25.841076 -27.866874 31.374543 -8.664888 0.773012 -0.233288 15.834223 7.125000 0.000000 0.000000 
10.960782 17.963469 24.351263 -176.941937 16.451879 -176.531861 -16.754260 -8.493167 -7.378254 -2.241586 8.075078 23.635850 -5.453670 18.068135 -10.993208 4.247800 -12.483000 -37.462900 27.229387 19.611644 -1.801753 2.252567 -6.757704 21.332267 2.697526 -12.141032 -7.268951 -0.303800 3.543800 -9.796500 4.712112 0.812933 3.972731 -5.010493 0.068846 -13.276918 13.488517 -1.036641 16.340512 2.205300 0.583700 5.332100 -90.723053 4.388804 22.727073 27.587462 -27.843871 -7.850693 1.330762 0.761246 6.849792 -7.125000 0.000000 0.000000 88.339236 -6.577201 25.141547 -28.140241 31.663879 -8.794299 0.767695 -0.230331 15.316168 7.125000 0.000000 0.000000 
10.961131 17.962539 24.355331 -176.968783 16.398306 -176.490099 -16.792772 -8.493935 -7.380207 -2.252658 8.052960 23.567495 -5.489888 18.153336 -10.905064 4.303000 -12.553100 -37.717800 27.170630 19.632384 -1.901692 2.244569 -6.792186 21.391766 2.718007 -12.219981 -7.278684 -0.294700 3.490800 -9.648300 5.094704 0.755831 3.663018 -4.891326 0.053351 -13.454648 13.621507 -0.916389 16.247650 2.277900 0.631400 5.278400 -90.797772 4.429408 22.145764 27.541585 -27.807976 -7.824466 1.337816 0.761799 6.970412 -7.125000 0.000000 0.000000 88.119889 -6.650074 24.562409 -28.499911 31.988621 -8.896018 0.764529 -0.252711 15.306167 7.125000 0.000000 0.000000 
10.964386 17.966840 24.363816 -177.018310 16.842987 -176.296939 -16.816190 -8.298354 -7.620309 -2.270285 8.040024 23.496477 -5.547570 18.304236 -10.959642 4.281300 -12.525700 -37.617900 27.048560 19.926545 -2.140995 2.243844 -6.813914 21.387266 2.672787 -12.037342 -7.098054 -0.290100 3.463900 -9.573100 4.865002 0.864437 3.955476 -4.900807 0.121168 -13.212098 13.792937 -0.793046 15.858199 2.319000 0.666200 5.180800 -90.470747 4.096619 21.671784 27.563637 -27.830940 -7.809926 1.341258 0.758112 6.980849 -7.125000 0.000000 0.000000 88.001603 -6.407390 24.121195 -28.736280 32.193095 -8.966817 0.760127 -0.268530 15.518556 7.125000 0.000000 0.000000 
10.965199 17.968583 24.363003 -177.040349 16.421507 -176.332204 -16.844685 -8.628133 -7.427066 -2.291468 8.011907 23.414333 -5.552948 18.321745 -10.931397 4.332300 -12.589900 -37.852000 27.040940 19.731144 -2.081982 2.245424 -6.817280 21.406924 2.710265 -12.200050 -7.306919 -0.276500 3.382200 -9.344800 5.312272 0.693947 3.279770 -4.765766 0.031193 -13.622903 13.570341 -0.794992 16.132259 2.277100 0.670200 5.226500 -90.552455 4.361517 21.248349 27.504645 -27.766177 -7.765964 1.331018 0.763876 6.989013 -7.125000 0.000000 0.000000 87.637422 -6.882646 23.660648 -28.974055 32.440574 -9.094698 0.754955 -0.270296 15.514992 7.125000 0.000000 0.000000 
10.965780 17.971140 24.367187 -176.976520 16.822732 -176.110623 -16.813343 -8.494136 -7.556731 -2.309805 7.999995 23.369229 -5.537465 18.297659 -11.148671 4.189900 -12.408900 -37.194300 27.018883 19.993987 -2.239394 2.253133 -6.833852 21.379254 2.671491 -12.065835 -7.210498 -0.285000 3.433100 -9.487000 5.560152 0.874975 2.714113 -4.759524 0.097019 -13.817285 13.445379 -0.813616 16.476362 2.253100 0.683200 5.320500 -90.494609 4.483885 20.705016 27.435269 -27.705981 -7.727837 1.339798 0.765288 7.096360 -7.125000 0.000000 0.000000 87.372848 -7.173089 23.361587 -29.465063 32.968310 -9.430068 0.743569 -0.249242 14.721629 7.125000 0.000000 0.000000 
